<?xml version="1.0" encoding="utf-8"?>
<!-- Generator: Adobe Illustrator 27.9.0, SVG Export Plug-In . SVG Version: 6.00 Build 0)  -->
<svg version="1.1" id="Layer_1" xmlns="http://www.w3.org/2000/svg" xmlns:xlink="http://www.w3.org/1999/xlink" x="0px" y="0px"
	 viewBox="0 0 50 50" style="enable-background:new 0 0 50 50;" xml:space="preserve">
<style type="text/css">
	.st0{clip-path:url(#SVGID_00000031188865931182515540000004288813980919871904_);}
	.st1{fill:#19344E;stroke:#19344E;stroke-width:0.1;}
</style>
<g>
	<defs>
		<rect id="SVGID_1_" width="50" height="50"/>
	</defs>
	<clipPath id="SVGID_00000068651354864892063220000009443131512949972645_">
		<use xlink:href="#SVGID_1_"  style="overflow:visible;"/>
	</clipPath>
	<g style="clip-path:url(#SVGID_00000068651354864892063220000009443131512949972645_);">
		<path class="st1" d="M50.1,34.6L50.1,34.6L50.1,34.6L50.1,34.6c0-0.4,0-0.7,0-1.1l0,0l0,0c-0.5-0.3-0.9-0.4-1.1-0.3
			c-0.3,0.1-0.5,0.4-0.8,0.9c-0.2,0.3-0.3,0.6-0.5,1c-0.1,0.2-0.2,0.4-0.3,0.6c0,0,0,0,0,0c-0.1,0.2-0.2,0.4-0.3,0.5c0,0,0,0,0,0
			c0,0,0,0,0,0c0,0-0.1-0.1-0.1-0.1c-0.9-1-1.7-2.1-2.5-3.2C43,31,41.8,29,40.7,26.9c-1.4-2.6-2.7-5.3-3.7-8.1
			c-0.1-0.2-0.2-0.5-0.3-0.7c-0.5-1.1-0.9-2.3-0.8-3.6c0-0.4,0-0.8,0-1.2c0-0.2,0-0.3,0-0.5c0,0,0-0.1,0-0.1c0-0.2,0-0.4-0.1-0.7
			c-0.2-0.4-0.5-0.8-1-0.7c-0.2,0-0.4,0.1-0.6,0.2c-0.2,0.1-0.3,0.3-0.3,0.6c-0.1,0.4-0.1,0.8-0.1,1.2c0,0.1,0,0.3,0,0.4
			c0,0.3,0,0.5,0,0.8c0,0.2,0,0.3-0.1,0.3c-0.1,0.1-0.1,0.1-0.3,0.1c-5.9,0-11.7,0-17.6,0c-0.2,0-0.3,0-0.3-0.1
			c-0.1-0.1-0.1-0.2-0.1-0.3c0-0.4,0-0.8,0-1.2v0c0-0.4,0-0.8,0-1.2c0-0.2,0-0.4-0.1-0.5c-0.1-0.1-0.2-0.2-0.4-0.3
			c-0.3-0.1-0.6-0.1-0.9,0c-0.3,0.2-0.5,0.5-0.5,1c0,0.6,0,1.3,0,1.9c0,0.4,0,0.7,0,1.1v0c0,0.2,0,0.3-0.1,0.5
			c-1,2.9-2.2,5.8-3.5,8.6c-1.5,3.2-3.2,6.4-5.4,9.3l0,0c-0.6,0.8-1.2,1.6-2,2.2c-0.1-0.2-0.1-0.3-0.2-0.5c-0.1-0.4-0.3-0.8-0.4-1.1
			c-0.2-0.5-0.4-0.8-0.8-0.9c-0.3-0.1-0.7,0.1-1.1,0.4l0,0v0v0c0,0.4,0,0.7,0,1.1l0,0l0,0c0,0.1,0.1,0.2,0.1,0.3
			C0.5,36.2,0.7,37,1,37.7c0.1,0.2,0.2,0.4,0.2,0.6c0.1,0.2,0.2,0.3,0.3,0.3c0.2,0.2,0.5,0.2,1,0.2c2.5,0,5,0,7.5,0
			c12.3,0,24.7,0,37,0c0.4,0,0.7-0.1,0.9-0.2c0.2-0.2,0.4-0.4,0.5-0.7c0.3-0.6,0.6-1.3,1-1.9C49.6,35.6,49.9,35.1,50.1,34.6z
			 M31.3,27L31.3,27c0.9-1.8,1.7-3.5,2.6-5.4c0,0,0-0.1,0-0.1c0,0,0,0,0,0.1c0,0.1,0,0.2,0,0.3c0,1.2,0,2.4,0,3.7
			c0,3.6,0,7.2,0,10.8c0,0.2,0,0.4-0.1,0.5c-0.1,0.1-0.2,0.1-0.5,0.1c-2,0-4,0-6,0c-0.7,0-1.4,0-2.1,0h-0.4
			C27.5,33.9,29.5,30.5,31.3,27z M20.6,36.8c0,0.1,0,0.1,0,0.3h0h0h0h0h0h0h0h0h0h0h0h0h0h0h0h0h0h0h0h0h0h0h0h0h0h0h0h0h0h0h0h0h0
			h0h0h0h0h0h0h0h0h0h0h0h0h0h0h0h0h0h0h0h0h0h0h0h0h0h0h0h0h0h0h0h0h0h0h0h0h0h0h0h0h0h0h0h0h0h0h0h0h0h0h0h0h0h0h0h0h0h0h0h0h0h0
			h0h0h0h0h0h0h0h0h0h0h0h0h0h0h0h0h0h0h0h0h0h0h0h0h0h0h0h0h0h0h0h0h0h0h0h0h0h0h0h0h0h0h0h0h0h0h0h0h0h0h0h0h0h0h0h0h0h0h0h0h0h0
			h0h0h0h0h0h0h0h0h0h0h0h0h0h0h0h0h0h0h0h0h0h0h0h0h0h0h0h0h0h0h0h0h0h0h0h0h0h0h0h0h0h0h0h0h0h0h0h0h0h0h0h0h0h0h0h0h0h0h0h0h0h0
			h0h0h0h0h0h0h0h0h0h0h0h0h0h0h0h0h0h0h0h0h0h0h0h0h0h0h0h0h0h0h0h0h0h0h0h0h0h0h0h0h0h0h0h0h0h0h0h0h0h0h0h0h0h0h0h0h0h0h0h0h0h0
			h0h0h0h0h0h0h0h0h0h0h0h0h0h0h0h0h0h0h0h0h0h0h0h0h0h0h0h0h0h0h0h0h0h0h0h0h0h0h0h0h0h0h0h0h0h0h0h0h0h0h0h0h0h0h0h0h0h0h0h0h0h0
			h0h0h0h0h0h0h0h0h0h0h0h0h0h0h0h0h0h0h0h0h0h0h0h0h0h0h0h0h0h0h0h0h0h0h0h0h0h0h0h0h0h0h0h0h0h0h0h0h0h0h0h0h0h0h0h0h0h0h0h0h0h0
			h0h0h0h0h0h0h0h0h0h0h0h0h0h0h0h0h0h0h0h0h0h0h0h0h0h0h0h0h0h0h0h0h0h0h0h0h0h0h0h0h0h0h0h0h0h0h0h0h0h0h0h0h0h0h0h0h0h0h0h0h0h0
			h0h0h0h0h0h0h0h0h0h0h0h0h0h0h0h0h0h0h0h0h0h0h0h0h0h0h0h0h0h0h0h0h0h0h0h0h0h0H4.8c0-0.1,0-0.2,0-0.2c0-0.1,0.1-0.1,0.1-0.1
			c0,0,0,0,0,0c1.7-1.9,3-4,4.3-6.2c1.9-3.2,3.3-6.6,4.8-10c0.4-1,0.8-2,1.1-3c0.1-0.2,0.1-0.3,0.2-0.3c0.1-0.1,0.2-0.1,0.4-0.1
			c3.7,0,7.5,0,11.2,0c2.1,0,4.1,0,6.2,0c0,0,0.1,0,0.1,0c0.1,0,0.3,0,0.4,0.1c-0.1,0.3-0.2,0.5-0.3,0.8c-0.3,0.6-0.5,1.2-0.8,1.8
			c-0.9,2.2-2,4.4-3.1,6.6c-1.5,2.8-3,5.5-4.9,8c-0.6,0.7-1.2,1.4-2,2.1c-0.1-0.2-0.2-0.4-0.3-0.6c-0.2-0.5-0.4-0.9-0.6-1.4
			c-0.1-0.2-0.2-0.4-0.3-0.6c-0.2-0.2-0.3-0.3-0.6-0.3c-0.4,0-0.7,0.1-0.9,0.4c-0.2,0.3-0.2,0.6-0.1,0.9c0.2,0.4,0.3,0.7,0.5,1.1
			c0.1,0.2,0.2,0.4,0.3,0.6c0,0,0,0.1,0,0.1c0,0,0,0,0,0C20.5,36.7,20.5,36.7,20.6,36.8z M35.9,36.4c0-2.9,0-5.8,0-8.6
			c0-0.8,0-1.7,0-2.5v-3.7c2.3,5.6,5.2,10.7,9,15.3c0,0,0,0-0.1,0c0,0-0.1,0-0.1,0c0,0-0.1,0-0.1,0c0,0,0,0,0,0c0,0-0.1,0-0.1,0
			c-0.9,0-1.9,0-2.8,0c-1.8,0-3.6,0-5.4,0c-0.2,0-0.3,0-0.4-0.1C35.9,36.8,35.9,36.6,35.9,36.4z"/>
	</g>
</g>
</svg>
