<?xml version="1.0" encoding="utf-8"?>
<!-- Generator: Adobe Illustrator 27.9.0, SVG Export Plug-In . SVG Version: 6.00 Build 0)  -->
<svg version="1.1" id="Layer_1" xmlns="http://www.w3.org/2000/svg" xmlns:xlink="http://www.w3.org/1999/xlink" x="0px" y="0px"
	 viewBox="0 0 17 17" style="enable-background:new 0 0 17 17;" xml:space="preserve">
<style type="text/css">
	.st0{fill:#A39B00;stroke:#A39B00;stroke-width:0.1533;stroke-miterlimit:10;}
</style>
<g>
	<path class="st0" d="M12.3,9.1L12.3,9.1L12.3,9.1L11.9,8c0,0,0-0.1-0.1-0.1l-0.5-0.3c0,0-0.1,0-0.1,0l-0.2,0L11,7.4
		c0,0,0-0.1-0.1-0.1L10.4,7l0.2-0.3l0.2-0.1c0,0,0.1-0.1,0.1-0.1c0-0.1,0.1-0.3,0.1-0.4c0-0.1,0.1-0.1,0.1-0.2c0,0,0-0.1,0-0.1l0,0
		l0,0c0-0.1,0.1-0.2,0.2-0.3l0.2-0.3c0-0.1,0-0.1,0-0.2l0,0v0l-0.5-0.8l0-0.2c0,0,0-0.1,0-0.1l-0.2-0.3c0,0-0.1-0.1-0.1-0.1l0,0
		l-0.1-0.4c0,0,0,0,0-0.1L10,2.8l0,0c0,0,0-0.1,0-0.1c0-0.1-0.1-0.2-0.4-0.4C9.5,2.2,9.3,2,9.1,2C9,2,8.6,1.9,8.2,1.9
		C8,1.9,7.8,2,7.8,2C7.3,2.1,6,3.2,5.9,3.3C5.3,4.1,4.8,5.1,4.8,5.5c0,0.3,0,0.8,0.1,1.2c0,0.3,0,0.5,0,0.5c0,0.1,0,0.3,0,0.4l0,0
		l0,0C4.5,7.9,4.4,8.3,4.4,8.6c0,0.1,0.1,0.3,0.3,0.4l0,0l0,0c-0.8,0.7-1.3,1.5-1.3,2.4c0,1,0.5,1.9,1.5,2.6c1,0.7,2.2,1,3.6,1
		s2.6-0.4,3.6-1c1-0.7,1.5-1.6,1.5-2.6C13.6,10.6,13.1,9.7,12.3,9.1z M11.2,7.9l0.4,0.3l0.2,0.6l-0.1,0c-0.1-0.1-0.3-0.2-0.5-0.2
		l0,0l-0.1-0.5L11.2,7.9z M11,8.7c0.4,0.2,0.8,0.4,1.1,0.6c0.7,0.5,1.1,1.2,1.1,1.9l0,0h-1.5l0,0c-0.1-1.1-0.8-2.1-1.9-2.8L9.6,8.3
		l0.2,0C10.2,8.5,10.6,8.6,11,8.7z M5.2,6.7c0-0.1,0-0.2,0-0.3l0,0l0,0c0.3-0.6,0.9-0.3,1-0.3c0.1,0,0.1,0,0.2,0
		c0.3-0.2,0.6-0.4,0.9-0.6l0.1,0l0,0.1c0,0.1,0,0.2,0,0.2l0,0l0,0C7,6.1,6.1,7.1,5.8,7.3l0,0L5.3,7.6l0,0c0-0.1,0-0.2,0-0.3
		C5.3,7.2,5.2,7.1,5.2,6.7z M6.1,7.6C6.1,7.6,6.1,7.6,6.1,7.6L6.1,7.6c0.1-0.1,0.5-0.5,1.1-1.2l0.1-0.1l0.1,0.8L6.9,7.7l0.3,0.2
		l0.5-0.5c0,0,0.1-0.1,0-0.2L7.6,6.5l0,0c0,0,0,0,0,0l0,0l0,0c0.4,0.5,0.9,1.1,1,1.1c0,0,0.1,0.1,0.2,0.1c0.1,0,0.1,0,0.1-0.1
		l0.3-0.6l0.3-0.4l0.5,0.2L9.5,7.9c0,0,0,0,0,0L9.4,8.3L8.9,8c0,0-0.1,0-0.1,0C8.5,8,8.2,8.1,8.2,8.1c0,0-0.1,0-0.1,0L7.6,8.3
		c0,0,0,0-0.1,0L7.3,8.5l0,0C7,8.3,6.5,7.9,6.5,7.8C6.4,7.7,6.3,7.7,6.1,7.6C6.1,7.7,6.1,7.7,6.1,7.6L6.1,7.6L6.1,7.6z M9.3,9
		l0.1-0.3l0,0c1.1,0.6,1.8,1.6,1.9,2.6l0,0H8.7l0-2.1l0,0c0.1,0,0.2,0,0.5-0.1C9.2,9.1,9.3,9,9.3,9z M10.6,7.5l0.2,0.7l-0.1,0
		C10.5,8.2,10.2,8.1,9.9,8L9.8,8l0.4-0.7L10.6,7.5z M9.7,2.9L10,3.3l0.1,0.4c0,0.1,0.1,0.1,0.1,0.1l0.1,0L10.4,4l0,0.2
		c0,0,0,0.1,0,0.1l0.4,0.6l-0.3,0l-0.1,0l0,0L9.8,4.2l0,0c0-0.1,0-0.2,0-0.2c0-0.1,0-0.1,0-0.2c0,0-0.1-0.1-0.2,0L9.1,3.9
		C9,3.9,9,4,9,4.1C9,4.1,9,4.2,9.1,4.2c0.4,0.1,0.4,0.1,0.4,0.1l0.2,0.3l0,0C9.6,4.8,9.5,5,9.5,5.1l0.3,0.2c0-0.1,0.1-0.1,0.2-0.3
		l0-0.1l0.3,0.3c0,0,0,0,0.1,0l0.4,0.2l0,0c0,0.1-0.1,0.1-0.1,0.1l0,0l0,0c-0.1,0-0.3,0-0.5-0.1L10,6c0.2,0,0.3,0,0.5,0.1l0,0l0,0
		c0,0.1,0,0.2-0.1,0.3l0,0l-0.1,0.1l-0.1,0L9.6,6.1c-0.1,0-0.2,0-0.2,0L9.2,6.4L9.1,5.9c0,0,0-0.1-0.1-0.1c0,0,0-0.1-0.1-0.1l0,0
		C8.8,5.4,8.6,5.1,8.6,5c0-0.1,0-0.4,0-0.6L8.3,4.3C8.2,4.6,8.2,5,8.3,5.1c0,0,0.1,0.1,0.1,0.2l0,0L8,5.6l0.2,0.3l0.4-0.2l0.1,0.2
		C8.7,5.9,8.7,6,8.8,6l0,0l0.1,0.8L8.8,7.2l0,0C8.5,6.9,8.2,6.5,8,6.2C7.9,6.2,7.9,6.1,7.8,6.1C7.8,5.9,7.7,5.8,7.7,5.8c0,0,0,0,0,0
		c0-0.2,0-0.7,0.1-1.1c0-0.1,0.1-0.2,0.1-0.2l0,0L8.3,4c0.1-0.1,0.1-0.2,0-0.2C8.2,3.5,8.2,3.2,8.2,3l0,0h0C8.4,3,8.8,3,8.9,3.3
		c0,0,0.1,0.1,0.1,0.1c0.1,0,0.1,0,0.1-0.1L9.5,3L9.7,2.9z M7.4,2.6c0.2-0.1,0.4-0.2,0.5-0.3l0,0c0.1,0,1,0,1.2,0
		c0.1,0,0.3,0.1,0.4,0.2l0.1,0L9.3,2.7c0,0-0.1,0-0.1,0.1L9.1,2.9l0,0C8.9,2.7,8.6,2.7,8.5,2.6c-0.2,0-0.4,0-0.5,0.1
		c0,0-0.1,0.1-0.1,0.2l0,0L7.6,2.8L7.4,2.6L7.4,2.6z M6.1,3.6C6.1,3.6,6.1,3.6,6.1,3.6C6.2,3.6,6.2,3.6,6.1,3.6
		C6.2,3.5,6.6,3.2,7,2.9l0,0l0.4,0.2c0,0,0,0,0,0l0.4,0.2l0,0c0,0.1,0.1,0.3,0.1,0.4l0,0L7.3,3.9L6.1,3.6L6.1,3.6z M5.1,5.6
		c0-0.2,0.3-0.9,0.7-1.6l0,0l0,0l1.3,0.3c0,0,0,0,0.1,0l0.3,0l0,0.1c0,0.1-0.1,0.2-0.1,0.2C7.4,4.6,7.3,4.8,7.3,5l0,0l0,0
		C7.2,5.1,6.7,5.5,6.2,5.7l0,0l0,0c-0.1,0-0.6-0.2-1,0.1l-0.1,0l0-0.1C5.1,5.7,5.1,5.6,5.1,5.6z M5.1,8C5.2,8,5.5,8,5.7,8
		C5.8,8,6,8,6.1,8c0,0,0.1,0,0.1,0c0,0,0.5,0.4,0.8,0.7l0,0L6.9,8.9c0,0-0.1,0.1-0.1,0.1l0,0.1l0,0c-0.1,0-0.2,0.1-0.2,0.1
		c0,0-0.1,0-0.1,0l0,0l0,0C6.4,9.2,6.1,9.1,6,9l0,0l0,0c0-0.1,0.1-0.3,0.1-0.5L5.8,8.4c0,0.1,0,0.1,0,0.2l0,0l0,0
		c-0.1,0-0.3,0.1-0.4,0.1c-0.1,0-0.1,0-0.2,0.1l0,0l0,0l0,0l0,0C4.9,8.7,4.8,8.6,4.8,8.5C4.8,8.4,4.8,8.1,5.1,8z M3.8,11.3
		c0.1-0.8,0.6-1.6,1.4-2.1l0,0c0,0,0.1,0,0.1-0.1C5.5,9,5.5,9,5.6,9l0.1,0l0,0.1c0,0.1,0,0.1,0,0.2c0,0.1,0.2,0.2,0.3,0.2l0,0l0,0
		c-0.4,0.5-0.7,1.2-0.7,1.8l0,0L3.8,11.3L3.8,11.3z M7.2,14.6c-1.9-0.4-3.3-1.5-3.4-2.9l0,0h1.5l0,0c0.1,0.7,0.4,1.4,0.9,1.9
		C6.5,14,6.8,14.3,7.2,14.6l0.2,0L7.2,14.6z M8.3,14.6L8.3,14.6c-1.5-0.5-2.6-1.7-2.7-2.9l0,0h2.7L8.3,14.6z M8.3,11.3H5.7l0,0
		c0.1-0.6,0.3-1.1,0.7-1.6l0,0l0,0c0,0,0,0,0.1,0c0.1,0,0.1,0,0.2-0.1c0,0,0.1,0,0.1,0l0,0l0,0.3C6.9,9.9,7,9.9,7,10l0.4,0.2
		c0,0,0,0,0.1,0c0.1,0,0.2,0,0.3,0c0.2,0,0.3,0,0.3,0c0,0,0,0,0.1-0.1L8.3,10L8.3,11.3z M8.3,8.8C8.2,8.9,8.2,8.9,8.2,9l0,0.5l0,0
		C8.1,9.6,8,9.7,8,9.8l0,0l0,0c0,0-0.1,0-0.1,0c-0.1,0-0.2,0-0.3,0l0,0L7.2,9.7L7.2,9.1l0.6-0.5l0.4-0.1c0.1,0,0.3,0,0.6-0.1l0,0
		l0.3,0.2L9,8.8l0,0c-0.1,0-0.2,0.1-0.3,0.1l0,0l0,0C8.6,8.8,8.3,8.8,8.3,8.8z M8.7,14.6l0-3h2.7l0,0C11.2,12.9,10.2,14.1,8.7,14.6
		L8.7,14.6z M13.2,11.7c-0.1,1.3-1.5,2.5-3.4,2.9l-0.2,0l0.2-0.1c0.4-0.2,0.7-0.5,1-0.9c0.5-0.6,0.8-1.3,0.9-2l0,0L13.2,11.7
		L13.2,11.7z"/>
</g>
</svg>
