<?xml version="1.0" encoding="utf-8"?>
<!-- Generator: Adobe Illustrator 27.9.0, SVG Export Plug-In . SVG Version: 6.00 Build 0)  -->
<svg version="1.1" id="Layer_1" xmlns="http://www.w3.org/2000/svg" xmlns:xlink="http://www.w3.org/1999/xlink" x="0px" y="0px"
	 viewBox="0 0 50 50" style="enable-background:new 0 0 50 50;" xml:space="preserve">
<style type="text/css">
	.st0{display:none;}
	.st1{display:inline;}
	.st2{display:inline;clip-path:url(#SVGID_00000166653442333488462470000007347743001471348144_);}
	.st3{fill:#19344E;stroke:#19344E;stroke-width:0.1;}
	.st4{fill:#A39B00;stroke:#A39B00;stroke-width:0.884;stroke-linejoin:round;}
</style>
<g class="st0">
	<defs>
		<rect id="SVGID_1_" width="50" height="50"/>
	</defs>
	<clipPath id="SVGID_00000111884015796790929440000011804834013906938007_" class="st1">
		<use xlink:href="#SVGID_1_"  style="overflow:visible;"/>
	</clipPath>
	<g style="display:inline;clip-path:url(#SVGID_00000111884015796790929440000011804834013906938007_);">
		<path class="st3" d="M50.1,34.6L50.1,34.6L50.1,34.6L50.1,34.6c0-0.4,0-0.7,0-1.1l0,0l0,0c-0.5-0.3-0.9-0.4-1.1-0.3
			c-0.3,0.1-0.5,0.4-0.8,0.9c-0.2,0.3-0.3,0.6-0.5,1c-0.1,0.2-0.2,0.4-0.3,0.6c0,0,0,0,0,0c-0.1,0.2-0.2,0.4-0.3,0.5c0,0,0,0,0,0
			c0,0,0,0,0,0c0,0-0.1-0.1-0.1-0.1c-0.9-1-1.7-2.1-2.5-3.2C43,31,41.8,29,40.7,26.9c-1.4-2.6-2.7-5.3-3.7-8.1
			c-0.1-0.2-0.2-0.5-0.3-0.7c-0.5-1.1-0.9-2.3-0.8-3.6c0-0.4,0-0.8,0-1.2c0-0.2,0-0.3,0-0.5c0,0,0-0.1,0-0.1c0-0.2,0-0.4-0.1-0.7
			c-0.2-0.4-0.5-0.8-1-0.7c-0.2,0-0.4,0.1-0.6,0.2c-0.2,0.1-0.3,0.3-0.3,0.6c-0.1,0.4-0.1,0.8-0.1,1.2c0,0.1,0,0.3,0,0.4
			c0,0.3,0,0.5,0,0.8c0,0.2,0,0.3-0.1,0.3c-0.1,0.1-0.1,0.1-0.3,0.1c-5.9,0-11.7,0-17.6,0c-0.2,0-0.3,0-0.3-0.1
			c-0.1-0.1-0.1-0.2-0.1-0.3c0-0.4,0-0.8,0-1.2v0c0-0.4,0-0.8,0-1.2c0-0.2,0-0.4-0.1-0.5c-0.1-0.1-0.2-0.2-0.4-0.3
			c-0.3-0.1-0.6-0.1-0.9,0c-0.3,0.2-0.5,0.5-0.5,1c0,0.6,0,1.3,0,1.9c0,0.4,0,0.7,0,1.1v0c0,0.2,0,0.3-0.1,0.5
			c-1,2.9-2.2,5.8-3.5,8.6c-1.5,3.2-3.2,6.4-5.4,9.3l0,0c-0.6,0.8-1.2,1.6-2,2.2c-0.1-0.2-0.1-0.3-0.2-0.5c-0.1-0.4-0.3-0.8-0.4-1.1
			c-0.2-0.5-0.4-0.8-0.8-0.9c-0.3-0.1-0.7,0.1-1.1,0.4l0,0v0v0c0,0.4,0,0.7,0,1.1l0,0l0,0c0,0.1,0.1,0.2,0.1,0.3
			C0.5,36.2,0.7,37,1,37.7c0.1,0.2,0.2,0.4,0.2,0.6c0.1,0.2,0.2,0.3,0.3,0.3c0.2,0.2,0.5,0.2,1,0.2c2.5,0,5,0,7.5,0
			c12.3,0,24.7,0,37,0c0.4,0,0.7-0.1,0.9-0.2c0.2-0.2,0.4-0.4,0.5-0.7c0.3-0.6,0.6-1.3,1-1.9C49.6,35.6,49.9,35.1,50.1,34.6z
			 M31.3,27L31.3,27c0.9-1.8,1.7-3.5,2.6-5.4c0,0,0-0.1,0-0.1c0,0,0,0,0,0.1c0,0.1,0,0.2,0,0.3c0,1.2,0,2.4,0,3.7
			c0,3.6,0,7.2,0,10.8c0,0.2,0,0.4-0.1,0.5c-0.1,0.1-0.2,0.1-0.5,0.1c-2,0-4,0-6,0c-0.7,0-1.4,0-2.1,0h-0.4
			C27.5,33.9,29.5,30.5,31.3,27z M20.6,36.8c0,0.1,0,0.1,0,0.3h0h0h0h0h0h0h0h0h0h0h0h0h0h0h0h0h0h0h0h0h0h0h0h0h0h0h0h0h0h0h0h0h0
			h0h0h0h0h0h0h0h0h0h0h0h0h0h0h0h0h0h0h0h0h0h0h0h0h0h0h0h0h0h0h0h0h0h0h0h0h0h0h0h0h0h0h0h0h0h0h0h0h0h0h0h0h0h0h0h0h0h0h0h0h0h0
			h0h0h0h0h0h0h0h0h0h0h0h0h0h0h0h0h0h0h0h0h0h0h0h0h0h0h0h0h0h0h0h0h0h0h0h0h0h0h0h0h0h0h0h0h0h0h0h0h0h0h0h0h0h0h0h0h0h0h0h0h0h0
			h0h0h0h0h0h0h0h0h0h0h0h0h0h0h0h0h0h0h0h0h0h0h0h0h0h0h0h0h0h0h0h0h0h0h0h0h0h0h0h0h0h0h0h0h0h0h0h0h0h0h0h0h0h0h0h0h0h0h0h0h0h0
			h0h0h0h0h0h0h0h0h0h0h0h0h0h0h0h0h0h0h0h0h0h0h0h0h0h0h0h0h0h0h0h0h0h0h0h0h0h0h0h0h0h0h0h0h0h0h0h0h0h0h0h0h0h0h0h0h0h0h0h0h0h0
			h0h0h0h0h0h0h0h0h0h0h0h0h0h0h0h0h0h0h0h0h0h0h0h0h0h0h0h0h0h0h0h0h0h0h0h0h0h0h0h0h0h0h0h0h0h0h0h0h0h0h0h0h0h0h0h0h0h0h0h0h0h0
			h0h0h0h0h0h0h0h0h0h0h0h0h0h0h0h0h0h0h0h0h0h0h0h0h0h0h0h0h0h0h0h0h0h0h0h0h0h0h0h0h0h0h0h0h0h0h0h0h0h0h0h0h0h0h0h0h0h0h0h0h0h0
			h0h0h0h0h0h0h0h0h0h0h0h0h0h0h0h0h0h0h0h0h0h0h0h0h0h0h0h0h0h0h0h0h0h0h0h0h0h0h0h0h0h0h0h0h0h0h0h0h0h0h0h0h0h0h0h0h0h0h0h0h0h0
			h0h0h0h0h0h0h0h0h0h0h0h0h0h0h0h0h0h0h0h0h0h0h0h0h0h0h0h0h0h0h0h0h0h0h0h0h0h0H4.8c0-0.1,0-0.2,0-0.2c0-0.1,0.1-0.1,0.1-0.1
			c0,0,0,0,0,0c1.7-1.9,3-4,4.3-6.2c1.9-3.2,3.3-6.6,4.8-10c0.4-1,0.8-2,1.1-3c0.1-0.2,0.1-0.3,0.2-0.3c0.1-0.1,0.2-0.1,0.4-0.1
			c3.7,0,7.5,0,11.2,0c2.1,0,4.1,0,6.2,0c0,0,0.1,0,0.1,0c0.1,0,0.3,0,0.4,0.1c-0.1,0.3-0.2,0.5-0.3,0.8c-0.3,0.6-0.5,1.2-0.8,1.8
			c-0.9,2.2-2,4.4-3.1,6.6c-1.5,2.8-3,5.5-4.9,8c-0.6,0.7-1.2,1.4-2,2.1c-0.1-0.2-0.2-0.4-0.3-0.6c-0.2-0.5-0.4-0.9-0.6-1.4
			c-0.1-0.2-0.2-0.4-0.3-0.6c-0.2-0.2-0.3-0.3-0.6-0.3c-0.4,0-0.7,0.1-0.9,0.4c-0.2,0.3-0.2,0.6-0.1,0.9c0.2,0.4,0.3,0.7,0.5,1.1
			c0.1,0.2,0.2,0.4,0.3,0.6c0,0,0,0.1,0,0.1c0,0,0,0,0,0C20.5,36.7,20.5,36.7,20.6,36.8z M35.9,36.4c0-2.9,0-5.8,0-8.6
			c0-0.8,0-1.7,0-2.5v-3.7c2.3,5.6,5.2,10.7,9,15.3c0,0,0,0-0.1,0c0,0-0.1,0-0.1,0c0,0-0.1,0-0.1,0c0,0,0,0,0,0c0,0-0.1,0-0.1,0
			c-0.9,0-1.9,0-2.8,0c-1.8,0-3.6,0-5.4,0c-0.2,0-0.3,0-0.4-0.1C35.9,36.8,35.9,36.6,35.9,36.4z"/>
	</g>
</g>
<g>
	<path class="st4" d="M37.2,30.4L37,30.4l0,0l-1-3.4c0-0.1-0.1-0.2-0.2-0.3l-1.5-1.1c-0.1-0.1-0.3-0.1-0.4-0.1L33,25.6l-0.2-0.7
		c0-0.2-0.1-0.3-0.3-0.4L31,23.8l0.5-0.9l0.6-0.3c0.2-0.1,0.3-0.2,0.3-0.4c0.1-0.5,0.2-1.1,0.2-1.2c0.1-0.2,0.2-0.5,0.2-0.5
		c0-0.1,0-0.2,0-0.3l0-0.1l0-0.1c0.1-0.3,0.3-0.6,0.5-1.1l0.7-1c0.1-0.2,0.1-0.4,0-0.6l0,0v0l-1.7-2.7l0-0.7c0-0.1,0-0.2-0.1-0.3
		l-0.6-0.9c-0.1-0.1-0.2-0.2-0.3-0.2l-0.1,0l-0.4-1.1c0-0.1-0.1-0.1-0.1-0.2l-0.8-0.9l0-0.1c0-0.1,0.1-0.2,0.1-0.3
		c0-0.4-0.2-0.7-1.3-1.4c-0.4-0.2-1.2-0.7-1.6-0.8c-0.4-0.1-1.7-0.2-2.9-0.2c-0.7,0-1.3,0-1.6,0.1c-1.4,0.5-5.5,3.7-6,4.3
		c-1.9,2.4-3.4,5.8-3.6,7.1c-0.1,0.9,0,2.4,0.2,3.8c0.1,0.9,0.2,1.5,0.1,1.7c-0.1,0.4,0,0.9,0.1,1.3l0,0.1l-0.1,0
		c-1.3,0.5-1.7,1.8-1.5,2.7c0.1,0.4,0.4,0.9,1,1.4l0.1,0.1L13,30.4c-2.7,2.1-4.2,4.9-4.2,7.7c0,3.1,1.7,6,4.8,8.2
		c3.1,2.1,7.1,3.3,11.4,3.3s8.3-1.2,11.4-3.3c3.1-2.2,4.8-5.1,4.8-8.2C41.2,35.3,39.8,32.5,37.2,30.4z M33.8,26.6l1.2,0.8l0.6,1.9
		l-0.3-0.2c-0.5-0.3-1-0.5-1.5-0.8l-0.1,0l-0.4-1.7L33.8,26.6z M33,29.3c1.3,0.6,2.4,1.2,3.4,2c2.1,1.7,3.4,3.8,3.6,6l0,0.1h-4.8
		l0-0.1c-0.3-3.4-2.6-6.9-6.2-9L28.5,28l0.7,0.1C30.6,28.4,31.8,28.8,33,29.3z M14.4,22.7c0-0.3-0.1-0.6-0.1-0.9l0,0l0,0
		c1.1-1.8,2.9-1,3.1-0.9c0.2,0.1,0.4,0.1,0.5,0c0.9-0.5,1.9-1.1,2.9-1.9l0.2-0.1l0,0.2c0,0.4,0,0.7,0.1,0.8l0,0.1l0,0
		c-0.9,0.9-3.9,4-4.7,4.8l0,0l-1.8,0.9l0-0.1c-0.1-0.3-0.1-0.6-0.1-0.8C14.6,24.5,14.5,23.9,14.4,22.7z M17.2,25.7
		C17.2,25.7,17.2,25.7,17.2,25.7L17.2,25.7c0.4-0.4,1.6-1.6,3.6-3.7l0.2-0.2l0.4,2.6l-1.5,1.5l0.8,0.8l1.7-1.7
		c0.1-0.1,0.2-0.3,0.2-0.5l-0.4-2.2l0.1-0.1c0,0,0.1-0.1,0.1-0.1l0.1-0.1l0.1,0.1c1.2,1.6,2.9,3.4,3.1,3.6c0.1,0.1,0.3,0.2,0.5,0.2
		c0.2,0,0.4-0.2,0.4-0.3l0.9-2.1l1.1-1.3l1.7,0.8l-2.1,3.7c0,0,0,0.1,0,0.1l-0.3,1.2l-1.5-1c-0.1-0.1-0.3-0.1-0.4-0.1
		c-0.8,0.1-1.7,0.3-1.9,0.3c-0.1,0-0.2,0-0.3,0l-1.5,0.5c-0.1,0-0.1,0.1-0.2,0.1l-0.9,0.8l-0.1-0.1c-0.9-0.8-2.5-2.1-2.6-2.3
		c-0.3-0.3-0.7-0.4-1.1-0.4c0,0-0.1,0-0.1,0l-0.4,0L17.2,25.7z M27.6,30.1L28,29l0.1,0.1c3.4,1.9,5.7,5.1,6,8.3l0,0.1h-8.5l0-6.8
		l0.1,0c0.2,0,0.7-0.1,1.5-0.3C27.4,30.4,27.5,30.3,27.6,30.1z M31.8,25.5l0.6,2.4l-0.2-0.1c-0.9-0.3-1.8-0.6-2.8-0.8l-0.2,0
		l1.2-2.2L31.8,25.5z M28.7,10.7l1,1.1l0.5,1.3c0.1,0.2,0.2,0.3,0.4,0.3l0.2,0.1l0.4,0.5l0,0.7c0,0.1,0,0.2,0.1,0.3l1.3,2.1l-1,0.1
		l-0.4,0l0,0l-2.1-2.5l0-0.1c0-0.2,0.1-0.5,0.1-0.7c0-0.2,0-0.4-0.1-0.5c-0.1-0.1-0.3-0.2-0.5-0.1l-1.8,0.6
		c-0.2,0.1-0.4,0.3-0.4,0.5c0,0.2,0.2,0.4,0.4,0.5c1.2,0.3,1.3,0.4,1.3,0.4l0.7,0.8l0,0.1c-0.2,0.5-0.5,1.1-0.7,1.4l0.8,0.8
		c0.1-0.2,0.3-0.5,0.6-1.1l0.1-0.2l0.9,1.1c0.1,0.1,0.1,0.1,0.2,0.2l1.3,0.6L32,19c-0.1,0.2-0.2,0.4-0.2,0.5l0,0.1l-0.1,0
		c-0.4-0.1-1.1-0.1-1.7-0.2l-0.1,1.1c0.5,0,1.1,0.1,1.4,0.2l0.1,0l0,0.1c-0.1,0.2-0.1,0.5-0.2,0.9l0,0.1L31,21.9l-0.4-0.1l-2.1-0.9
		c-0.2-0.1-0.5,0-0.7,0.2l-0.6,0.8L27,20.3c0-0.1-0.1-0.3-0.2-0.4c-0.1-0.1-0.2-0.3-0.3-0.4l-0.1-0.1c-0.5-0.8-1.1-1.7-1.2-2
		c-0.1-0.3,0-1.1,0.2-1.9l-1.1-0.3c-0.2,0.9-0.3,2.1-0.1,2.6c0.1,0.1,0.2,0.4,0.3,0.6l0.1,0.1l-1.2,0.7l0.6,1l1.2-0.7l0.4,0.6
		c0.1,0.2,0.3,0.5,0.4,0.6l0,0l0.5,2.5l-0.5,1.2l-0.1-0.1c-0.7-0.8-1.6-1.9-2.3-2.8c-0.2-0.2-0.3-0.4-0.5-0.6
		c-0.3-0.4-0.5-0.7-0.6-0.9c0-0.1-0.1-0.1-0.1-0.1c-0.1-0.5-0.1-2.3,0.4-3.6c0.1-0.3,0.2-0.5,0.4-0.7l0,0l1.5-1.3
		c0.2-0.2,0.3-0.5,0.1-0.8c-0.5-0.6-0.6-1.9-0.5-2.4l0-0.1h0.1c0.4,0,1.7,0.2,2.2,0.9c0.1,0.2,0.3,0.3,0.4,0.3
		c0.2,0,0.4-0.1,0.5-0.2l0.7-0.9L28.7,10.7z M21.5,9.6c0.7-0.5,1.2-0.8,1.5-0.9l0,0c0.5-0.1,3.3,0,3.8,0.1c0.2,0.1,0.9,0.4,1.3,0.7
		l0.2,0.1l-0.7,0.3c-0.1,0-0.2,0.1-0.2,0.2l-0.4,0.5l-0.1-0.1c-0.6-0.5-1.3-0.7-1.9-0.8c-0.8-0.1-1.3-0.1-1.6,0.2
		c-0.1,0.1-0.3,0.3-0.3,0.6l0,0.1l-0.9-0.4l-0.8-0.5L21.5,9.6z M17.4,12.9C17.4,12.8,17.4,12.8,17.4,12.9c0.1-0.1,0.1-0.2,0.2-0.2
		c0.2-0.2,1.5-1.3,2.8-2.2l0.1-0.1l1.2,0.8c0,0,0.1,0,0.1,0l1.4,0.6l0,0.1c0.1,0.5,0.2,0.9,0.3,1.3l0.1,0.1L21,13.7L17.3,13
		L17.4,12.9z M14.2,19.2c0.1-0.8,0.9-3,2.3-5.1l0-0.1l0.1,0l4.2,0.8c0.1,0,0.1,0,0.2,0l1-0.1L21.9,15c-0.1,0.3-0.3,0.5-0.3,0.7
		c-0.2,0.5-0.3,1-0.4,1.6l0,0.1l0,0c-0.4,0.3-1.9,1.4-3.4,2.3l0,0l-0.1,0c-0.4-0.2-1.9-0.6-3.2,0.3l-0.2,0.1l0-0.2
		C14.2,19.6,14.2,19.4,14.2,19.2z M13.9,27c0.5-0.2,1.3-0.1,2.1,0c0.5,0,0.9,0.1,1.4,0.1c0.1,0,0.2,0,0.3,0.1
		c0.1,0.1,1.6,1.4,2.5,2.2l0.1,0.1l-0.5,0.5c-0.1,0.1-0.2,0.3-0.2,0.5l0,0.2l-0.1,0c-0.3,0.1-0.6,0.2-0.7,0.2
		c-0.1,0-0.2,0.1-0.3,0.1l0,0l0,0c-0.3-0.1-1-0.5-1.3-0.7l-0.1,0l0-0.1c0.1-0.3,0.2-1,0.4-1.5l-1.1-0.3c-0.1,0.2-0.1,0.4-0.1,0.5
		l0,0.1l-0.1,0c-0.4,0.1-0.9,0.2-1.4,0.4c-0.2,0.1-0.3,0.1-0.5,0.2l-0.1,0.1l0,0l0,0l-0.1,0c-0.4-0.3-0.8-0.8-0.9-1
		C13,28.1,13.1,27.3,13.9,27z M9.9,37.4c0.3-2.6,1.9-5,4.6-6.8l0.1-0.1c0.1-0.1,0.3-0.1,0.4-0.2c0.2-0.1,0.4-0.1,0.7-0.2l0.2,0
		l0,0.2c0,0.3,0,0.4,0.1,0.5c0.1,0.2,0.5,0.5,1,0.8l0.1,0.1l-0.1,0.1c-1.4,1.8-2.2,3.7-2.3,5.7l0,0.1H9.9L9.9,37.4z M20.8,48
		c-6.1-1.2-10.4-4.9-10.9-9.2l0-0.1h4.8l0,0.1c0.2,2.2,1.2,4.4,2.8,6.3c0.9,1.1,2.1,2,3.3,2.8l0.6,0.4L20.8,48z M24.4,48.2l-0.2-0.1
		c-4.6-1.6-8-5.5-8.4-9.4l0-0.1h8.6L24.4,48.2z M24.4,37.5h-8.6l0-0.1c0.2-1.8,1-3.6,2.3-5.2l0-0.1l0.1,0c0.1,0,0.1,0,0.2,0
		c0.2,0,0.4-0.1,0.6-0.2c0.1-0.1,0.3-0.1,0.4-0.2l0.1,0l0.1,1c0,0.2,0.1,0.4,0.3,0.5l1.4,0.6c0.1,0,0.1,0,0.2,0c0.4,0,0.7,0,1,0
		c0.8,0,1-0.1,1.1-0.2c0.1,0,0.1-0.1,0.3-0.3l0.2-0.2L24.4,37.5z M24.3,29.6c-0.2,0.1-0.4,0.3-0.3,0.6l0.1,1.6l0,0
		c-0.2,0.3-0.5,0.6-0.7,0.8l0,0l0,0c-0.1,0-0.3,0-0.4,0c-0.3,0-0.6,0-0.9,0l0,0l-1-0.4l-0.2-1.8l1.9-1.7l1.3-0.5
		c0.3,0,0.9-0.1,1.8-0.3l0,0l1.1,0.7l-0.3,0.7l-0.1,0c-0.3,0.1-0.7,0.2-0.9,0.2l0,0l0,0C25.2,29.6,24.5,29.6,24.3,29.6z M25.6,48.2
		l0-9.6h8.6l0,0.1c-0.4,3.9-3.8,7.8-8.4,9.4L25.6,48.2z M40.1,38.8c-0.4,4.3-4.8,8-10.9,9.2l-0.7,0.1l0.6-0.4
		c1.3-0.8,2.4-1.7,3.3-2.8c1.6-1.9,2.7-4.1,2.8-6.3l0-0.1h4.8L40.1,38.8z"/>
</g>
</svg>
